<?xml version="1.0" standalone="no"?>
<!DOCTYPE svg PUBLIC "-//W3C//DTD SVG 20010904//EN"
 "http://www.w3.org/TR/2001/REC-SVG-20010904/DTD/svg10.dtd">
<svg version="1.0" xmlns="http://www.w3.org/2000/svg"
 width="300.000000pt" height="134.000000pt" viewBox="0 0 300.000000 134.000000"
 preserveAspectRatio="xMidYMid meet">
<metadata>
Created by potrace 1.10, written by Peter Selinger 2001-2011
</metadata>
<g transform="translate(0.000000,134.000000) scale(0.100000,-0.100000)"
fill="#000000" stroke="none">
<path d="M1114 1245 c0 -55 1 -76 3 -47 2 29 2 74 0 100 -2 26 -3 2 -3 -53z"/>
<path d="M1344 1255 c0 -49 1 -71 3 -48 2 23 2 64 0 90 -2 26 -3 8 -3 -42z"/>
<path d="M1564 1245 c0 -55 1 -76 3 -47 2 29 2 74 0 100 -2 26 -3 2 -3 -53z"/>
<path d="M1784 1245 c0 -55 1 -76 3 -47 2 29 2 74 0 100 -2 26 -3 2 -3 -53z"/>
<path d="M2004 1255 c0 -49 1 -71 3 -48 2 23 2 64 0 90 -2 26 -3 8 -3 -42z"/>
<path d="M2234 1250 c0 -52 1 -74 3 -47 2 26 2 68 0 95 -2 26 -3 4 -3 -48z"/>
<path d="M2454 1250 c0 -52 1 -74 3 -47 2 26 2 68 0 95 -2 26 -3 4 -3 -48z"/>
<path d="M2674 1245 c0 -55 1 -76 3 -47 2 29 2 74 0 100 -2 26 -3 2 -3 -53z"/>
<path d="M2894 1250 c0 -52 1 -74 3 -47 2 26 2 68 0 95 -2 26 -3 4 -3 -48z"/>
<path d="M184 1288 c-4 -13 -37 -97 -75 -188 -37 -91 -77 -189 -88 -217 l-21
-53 78 0 79 0 25 63 c14 34 54 132 88 217 34 85 66 159 71 165 25 26 8 35 -70
35 -74 0 -80 -2 -87 -22z m96 -38 c0 -15 -129 -331 -146 -357 -17 -26 -64 -32
-64 -8 0 8 24 75 54 148 99 240 92 227 126 227 16 0 30 -4 30 -10z"/>
<path d="M375 1182 l-50 -127 27 -65 c15 -36 28 -73 28 -82 0 -10 5 -18 10
-18 6 0 13 8 16 18 16 47 148 368 155 377 19 20 6 25 -63 25 l-73 0 -50 -128z
m115 61 c0 -19 -78 -213 -91 -227 -4 -5 -13 1 -19 16 -10 20 -6 39 26 119 36
91 58 124 75 113 5 -3 9 -12 9 -21z"/>
<path d="M670 1297 c0 -7 4 -17 8 -22 5 -6 48 -108 97 -227 l88 -217 79 -3
c43 -2 78 -1 78 2 0 3 -40 102 -89 220 -48 118 -91 225 -95 238 -7 20 -13 22
-87 22 -58 0 -79 -3 -79 -13z m207 -222 c40 -98 73 -185 73 -192 0 -14 -38
-18 -56 -5 -11 7 -154 353 -154 372 0 7 13 10 32 8 31 -3 33 -6 105 -183z"/>
<path d="M605 1228 c-4 -13 -18 -51 -32 -86 -20 -50 -23 -68 -15 -90 6 -15 44
-110 86 -211 42 -102 76 -191 76 -197 0 -35 20 -18 36 28 9 29 25 69 34 88 11
23 14 40 9 50 -14 24 -158 377 -165 405 -9 34 -21 40 -29 13z m83 -260 c59
-146 73 -200 53 -212 -14 -9 -25 11 -85 159 -61 151 -70 205 -36 205 3 0 34
-69 68 -152z"/>
<path d="M1111 1033 c2 -117 7 -107 11 25 2 45 0 82 -4 82 -5 0 -7 -48 -7
-107z"/>
<path d="M1557 1019 c1 -67 5 -124 8 -127 3 -3 5 52 5 121 0 70 -3 127 -7 127
-5 0 -7 -55 -6 -121z"/>
<path d="M1780 1035 c0 -60 2 -106 4 -104 7 7 9 199 2 206 -3 3 -6 -42 -6
-102z"/>
<path d="M1857 1123 c18 -2 50 -2 70 0 21 2 7 4 -32 4 -38 0 -55 -2 -38 -4z"/>
<path d="M2318 1123 c17 -2 47 -2 65 0 17 2 3 4 -33 4 -36 0 -50 -2 -32 -4z"/>
<path d="M2528 1123 c17 -2 47 -2 65 0 17 2 3 4 -33 4 -36 0 -50 -2 -32 -4z"/>
<path d="M2757 1123 c18 -2 50 -2 70 0 21 2 7 4 -32 4 -38 0 -55 -2 -38 -4z"/>
<path d="M2454 1015 c0 -49 1 -71 3 -48 2 23 2 64 0 90 -2 26 -3 8 -3 -42z"/>
<path d="M2674 1015 c0 -49 1 -71 3 -48 2 23 2 64 0 90 -2 26 -3 8 -3 -42z"/>
<path d="M2894 1015 c0 -49 1 -71 3 -48 2 23 2 64 0 90 -2 26 -3 8 -3 -42z"/>
<path d="M1339 1083 c-4 -62 -2 -133 4 -133 4 0 7 32 7 70 0 39 -2 70 -5 70
-3 0 -5 -3 -6 -7z"/>
<path d="M484 928 c-9 -29 -25 -70 -36 -91 l-19 -39 36 -91 c37 -93 55 -124
55 -96 0 8 16 52 35 98 l34 83 -23 57 c-13 31 -29 73 -36 94 -6 20 -15 37 -20
37 -5 0 -16 -24 -26 -52z m48 -100 c13 -28 13 -38 1 -65 -7 -18 -17 -33 -21
-33 -10 0 -32 45 -32 65 0 18 21 65 30 65 3 0 13 -15 22 -32z"/>
<path d="M277 953 c-2 -5 -12 -30 -21 -58 -9 -27 -23 -61 -30 -74 -12 -21 -11
-31 9 -75 22 -50 133 -321 155 -381 12 -30 12 -30 47 58 l35 87 -25 63 c-120
293 -147 362 -147 373 0 15 -16 19 -23 7z m88 -289 c49 -121 62 -162 54 -176
-5 -10 -14 -18 -18 -18 -8 0 -93 196 -126 290 -14 40 -2 91 16 73 6 -6 39 -82
74 -169z"/>
<path d="M1108 913 c-2 -5 -1 -53 2 -108 l5 -100 5 103 c3 57 2 106 -2 108 -4
2 -8 1 -10 -3z"/>
<path d="M1168 903 c17 -2 47 -2 65 0 17 2 3 4 -33 4 -36 0 -50 -2 -32 -4z"/>
<path d="M1260 643 l0 -213 78 0 79 0 -2 38 c-3 37 -3 37 -44 34 l-41 -4 0 61
0 61 30 0 c28 0 30 3 30 35 0 32 -2 35 -30 35 -29 0 -30 2 -30 45 l0 45 43 0
44 0 -2 36 -2 37 -77 1 -76 1 0 -212z"/>
<path d="M1489 850 c0 -3 0 -43 1 -90 1 -59 6 -90 16 -101 13 -14 13 -18 -1
-29 -11 -9 -15 -34 -15 -106 l0 -94 36 0 35 0 -3 90 -3 90 28 0 27 0 0 -90 0
-90 35 0 35 0 0 88 c0 64 -4 94 -16 110 -15 21 -15 25 0 41 13 15 16 36 14
101 l-3 83 -33 1 -32 1 0 -88 0 -88 -27 3 c-26 3 -26 3 -24 84 l2 82 -35 4
c-20 2 -36 2 -37 -2z"/>
<path d="M1750 643 l0 -213 81 0 80 0 -3 38 -3 37 -42 -3 -43 -4 0 61 0 61 33
0 c31 0 33 2 33 35 0 33 -2 35 -33 35 -32 0 -33 1 -33 45 l0 45 46 0 45 0 -3
36 -3 35 -78 2 -77 2 0 -212z"/>
<path d="M2243 844 c-2 -7 -3 -96 -1 -199 4 -217 3 -215 99 -215 89 0 89 -1
91 216 0 101 1 189 2 196 1 7 -13 12 -34 12 l-35 0 0 -177 0 -177 -28 0 -28 0
2 177 2 176 -33 1 c-18 1 -35 -4 -37 -10z"/>
<path d="M2509 855 c0 0 -1 -17 -2 -38 -2 -36 -1 -37 31 -37 l33 0 -3 -175 -3
-175 38 0 38 0 -3 175 -3 175 33 0 c30 0 32 2 32 38 l0 37 -95 0 c-52 0 -95 0
-96 0z"/>
<path d="M2770 643 l0 -213 81 0 80 0 -3 38 -3 37 -42 -3 -43 -4 0 62 0 62 32
-4 c31 -3 32 -1 33 35 2 36 1 37 -32 37 -33 0 -33 1 -33 45 l0 45 46 0 45 0
-3 36 -3 37 -78 1 -77 1 0 -212z"/>
<path d="M1997 832 c-15 -16 -17 -45 -17 -194 0 -207 0 -208 97 -208 73 0 93
17 93 78 0 41 -1 42 -35 42 -31 0 -35 -3 -35 -25 0 -20 -5 -25 -25 -25 l-25 0
0 140 0 140 25 0 c20 0 25 -5 25 -25 0 -22 4 -25 35 -25 34 0 35 1 35 41 0 69
-11 79 -89 79 -53 0 -72 -4 -84 -18z"/>
<path d="M13 728 c7 -18 51 -126 97 -240 l84 -208 79 0 c43 0 77 4 75 8 -1 5
-46 113 -98 240 l-94 232 -78 0 -78 0 13 -32z m124 -38 c47 -92 146 -348 138
-360 -9 -14 -40 -13 -54 3 -18 22 -159 375 -153 382 14 14 57 -1 69 -25z"/>
<path d="M770 529 c-52 -127 -96 -235 -98 -240 -2 -5 32 -9 75 -9 l79 0 94
232 c52 127 97 235 98 240 2 4 -32 8 -75 8 l-79 0 -94 -231z m180 175 c0 -14
-17 -59 -55 -149 -7 -16 -30 -70 -50 -120 -42 -103 -50 -115 -77 -115 -28 0
-31 22 -10 76 62 157 123 298 133 310 16 19 59 18 59 -2z"/>
<path d="M614 684 c-3 -10 -41 -106 -84 -211 l-77 -193 73 0 c47 0 74 4 74 11
0 6 22 62 49 124 l49 114 -33 81 c-37 93 -42 100 -51 74z m26 -129 c7 -20 4
-40 -14 -88 -42 -111 -63 -146 -85 -140 -20 5 -20 6 5 71 29 79 75 182 81 182
2 0 8 -11 13 -25z"/>
<path d="M1080 690 l-35 -6 35 -4 c19 -3 58 -3 85 0 l50 6 -50 4 c-27 3 -66 3
-85 0z"/>
<path d="M1114 570 c0 -52 1 -74 3 -47 2 26 2 68 0 95 -2 26 -3 4 -3 -48z"/>
<path d="M962 465 c7 -7 239 -8 246 -1 3 3 -52 6 -123 6 -71 0 -126 -2 -123
-5z"/>
<path d="M1114 355 c0 -49 1 -71 3 -48 2 23 2 64 0 90 -2 26 -3 8 -3 -42z"/>
<path d="M2453 345 c0 -44 2 -61 4 -37 2 23 2 59 0 80 -2 20 -4 1 -4 -43z"/>
<path d="M2673 350 c0 -36 2 -50 4 -32 2 17 2 47 0 65 -2 17 -4 3 -4 -33z"/>
<path d="M1558 315 c-2 -42 0 -121 3 -178 5 -89 6 -79 7 76 2 180 -4 239 -10
102z"/>
<path d="M187 243 c-4 -3 -7 -35 -7 -70 0 -51 3 -63 16 -63 12 0 15 7 11 26
-3 20 0 28 14 31 26 7 24 23 -2 23 -28 0 -21 34 9 38 12 2 20 8 17 13 -7 10
-48 12 -58 2z"/>
<path d="M345 180 c0 -55 3 -70 15 -70 21 0 19 134 -2 138 -10 2 -13 -14 -13
-68z"/>
<path d="M477 243 c-4 -3 -7 -35 -7 -70 0 -44 4 -63 13 -63 9 0 12 13 10 43
l-3 42 21 -42 c11 -24 24 -43 29 -43 6 0 10 32 10 70 0 75 -19 100 -21 28 l-1
-43 -17 37 c-21 45 -25 50 -34 41z"/>
<path d="M660 193 c-7 -32 -15 -64 -17 -70 -3 -7 2 -13 11 -13 9 0 16 6 16 14
0 24 21 30 27 7 3 -12 12 -21 19 -21 8 0 14 1 14 3 -5 31 -39 132 -47 134 -5
2 -16 -22 -23 -54z"/>
<path d="M820 181 c0 -77 17 -98 22 -28 l3 42 14 -42 c23 -68 41 -56 41 28 0
52 -3 70 -12 67 -8 -3 -12 -19 -10 -42 4 -46 -14 -41 -26 6 -4 18 -13 33 -20
36 -9 3 -12 -16 -12 -67z"/>
<path d="M1011 236 c-7 -8 -11 -37 -9 -68 3 -50 5 -53 31 -56 27 -3 48 21 32
36 -4 4 -10 1 -12 -5 -3 -7 -11 -13 -19 -13 -12 0 -14 11 -12 47 3 46 28 76
28 34 0 -12 5 -21 10 -21 16 0 11 47 -6 54 -23 9 -30 8 -43 -8z"/>
<path d="M1175 180 c0 -38 3 -70 8 -70 4 0 10 0 13 0 3 0 6 30 6 68 0 49 -3
68 -13 70 -11 2 -14 -14 -14 -68z"/>
<path d="M1325 238 c-18 -47 -32 -124 -25 -132 5 -5 12 2 16 18 8 33 22 33 34
0 19 -49 27 -14 12 56 -15 66 -27 85 -37 58z"/>
<path d="M1470 181 c0 -63 2 -69 22 -75 13 -3 27 -1 33 5 6 6 2 12 -13 15 -20
6 -22 13 -22 65 0 33 -4 59 -10 59 -6 0 -10 -30 -10 -69z"/>
<path d="M1746 238 c-5 -14 -26 -116 -26 -123 0 -15 19 -2 23 16 7 26 31 20
35 -9 4 -23 22 -31 22 -9 -1 6 -6 39 -13 71 -12 57 -32 83 -41 54z"/>
<path d="M1897 244 c-4 -4 -7 -36 -7 -71 l0 -64 33 3 32 3 0 65 c0 62 -1 65
-25 68 -14 2 -29 0 -33 -4z m41 -64 c-4 -60 -22 -71 -26 -16 -4 43 2 66 18 66
7 0 10 -19 8 -50z"/>
<path d="M2057 243 c-8 -17 25 -133 38 -133 12 0 50 129 40 138 -10 10 -25
-12 -26 -36 0 -15 -4 -36 -8 -47 -7 -16 -10 -10 -16 28 -7 45 -19 67 -28 50z"/>
<path d="M2229 246 c-3 -36 0 -136 5 -136 3 0 12 0 19 0 8 0 12 19 11 67 -2
54 -5 69 -18 71 -9 2 -16 1 -17 -2z"/>
<path d="M2373 243 c-22 -8 -15 -51 12 -69 26 -17 34 -44 14 -44 -7 0 -18 8
-26 18 -12 16 -13 15 -11 -8 2 -20 8 -25 33 -25 42 0 46 34 8 69 -21 20 -25
28 -16 37 10 10 14 9 19 -4 8 -23 24 -21 24 2 0 25 -27 37 -57 24z"/>
<path d="M2535 180 c0 -56 3 -70 15 -70 12 0 15 15 15 70 0 56 -3 70 -15 70
-12 0 -15 -14 -15 -70z"/>
<path d="M2668 243 c-8 -20 -2 -132 7 -130 6 1 8 20 7 42 -4 44 7 41 24 -8 20
-58 34 -44 34 32 0 41 -4 71 -10 71 -5 0 -10 -19 -11 -42 l0 -43 -19 43 c-19
41 -26 49 -32 35z"/>
<path d="M2850 231 c-11 -22 -13 -80 -4 -105 4 -10 18 -16 40 -16 31 0 34 3
34 30 0 18 -6 33 -15 37 -21 8 -33 -6 -15 -17 11 -7 12 -12 3 -21 -6 -6 -16
-8 -22 -5 -13 8 -14 65 -2 85 10 16 31 6 31 -15 0 -8 5 -14 10 -14 14 0 13 33
-2 48 -18 18 -46 14 -58 -7z"/>
</g>
</svg>
